<svg xmlns="http://www.w3.org/2000/svg" xmlns:svg="http://www.w3.org/2000/svg" id="Layer_1" x="0" y="0" version="1.1" viewBox="0 0 24 24" xml:space="preserve" style="enable-background:new 0 0 24 24"><metadata id="metadata13"/><g id="g6" transform="matrix(1.142875,0,0,1.1428571,-1.7145,-1.7142869)"><path id="path2" d="m 12,14.5 c -4.711,0 -8,2.467 -8,6 v 2 h 16 v -2 c 0,-3.533 -3.29,-6 -8,-6 z m -6,6 c 0,-1.312 0.767,-2.402 2.056,-3.112 l 2.075,3.112 z m 7.868,0 2.075,-3.112 C 17.232,18.098 18,19.188 18,20.5 Z"/><path id="path4" d="m 12,13.5 c 2.757,0 5,-2.243 5,-5 v -6 h -2 v 2 h -2 v -3 h -2 v 3 H 9 v -2 H 7 v 6 c 0,2.757 2.243,5 5,5 z m 0,-2 c -1.304,0 -2.416,-0.836 -2.829,-2 h 5.658 c -0.413,1.164 -1.525,2 -2.829,2 z m -3,-5 h 6 v 1 H 9 Z"/></g></svg>