<svg xmlns="http://www.w3.org/2000/svg" xmlns:svg="http://www.w3.org/2000/svg" id="svg10546" width="20" height="20" version="1.1" viewBox="0 0 20 20"><metadata id="metadata10551"/><g id="layer1" transform="translate(0,-1032.3622)"><path style="color:#000;clip-rule:nonzero;display:inline;overflow:visible;visibility:visible;opacity:1;isolation:auto;mix-blend-mode:normal;color-interpolation:sRGB;color-interpolation-filters:linearRGB;solid-color:#000;solid-opacity:1;fill:#000;fill-opacity:1;fill-rule:evenodd;stroke:none;stroke-width:3;stroke-linecap:round;stroke-linejoin:round;stroke-miterlimit:4;stroke-dasharray:none;stroke-dashoffset:0;stroke-opacity:1;marker:none;color-rendering:auto;image-rendering:auto;shape-rendering:auto;text-rendering:auto;enable-background:accumulate" id="rect11180" d="M 10 6 C 9.446 6 9 6.4459904 9 7 L 9 9 L 7 9 C 6.446 9 6 9.446 6 10 C 6 10.554 6.446 11 7 11 L 9 11 L 9 13 C 9 13.55401 9.446 14 10 14 C 10.554 14 11 13.55401 11 13 L 11 11 L 13 11 C 13.554 11 14 10.554 14 10 C 14 9.446 13.554 9 13 9 L 11 9 L 11 7 C 11 6.4459904 10.554 6 10 6 z" transform="translate(0,1032.3622)"/></g></svg>